{"title":"The Smurfs 2011 TS XViD DTRG","uid":6581769,"size":1387886825,"categoryP":"video","categoryS":"movies","magnet":"?xt=urn:btih:6333b27d0ae71d9915200b7f814782fe15bc8057&amp;dn=The+Smurfs+2011+TS+XViD+DTRG&amp;tr=udp%3A%2F%2Ftracker.openbittorrent.com%3A80&amp;tr=udp%3A%2F%2Fopen.demonii.com%3A1337&amp;tr=udp%3A%2F%2Ftracker.coppersurfer.tk%3A6969&amp;tr=udp%3A%2F%2Fexodus.desync.com%3A6969","seeders":1,"leechers":0,"uploader":"SAFCukO09","files":3,"time":1312443808,"description":"Format : AVI\nFormat/Info : Audio Video Interleave\nFile size : 1.29 GiB\nDuration : 1h 34mn\nOverall bit rate : 1 968 Kbps\nWriting library : VirtualDub build 32842/release\n\nVideo\nID : 0\nFormat : MPEG-4 Visual\nFormat profile : Advanced Simple@L5\nFormat settings, BVOP : 2\nFormat settings, QPel : No\nFormat settings, GMC : No warppoints\nFormat settings, Matrix : Default (H.263)\nMuxing mode : Packed bitstream\nCodec ID : XVID\nCodec ID/Hint : XviD\nDuration : 1h 34mn\nBit rate : 1 828 Kbps\nWidth : 642 pixels\nHeight : 342 pixels\nDisplay aspect ratio : 1.877\nFrame rate : 29.970 fps\nColor space : YUV\nChroma subsampling : 4:2:0\nBit depth : 8 bits\nScan type : Progressive\nCompression mode : Lossy\nBits/(Pixel*Frame) : 0.278\nStream size : 1.20 GiB (93%)\nWriting library : XviD 64\n\nAudio\nID : 1\nFormat : MPEG Audio\nFormat version : Version 1\nFormat profile : Layer 3\nMode : Joint stereo\nMode extension : MS Stereo\nCodec ID : 55\nCodec ID/Hint : MP3\nDuration : 1h 34mn\nBit rate mode : Constant\nBit rate : 128 Kbps\nChannel(s) : 2 channels\nSampling rate : 44.1 KHz\nCompression mode : Lossy\nStream size : 86.1 MiB (7%)\nAlignment : Split accross interleaves\nInterleave, duration : 33 ms (1.00 video frame)\nInterleave, preload duration : 500 ms\nWriting library : LAME3.98r\nEncoding settings : -m j -V 4 -q 2 -lowpass 17 -b 128\n\n\n\n\n &lt;a href=&quot;\nhttp://www.imdb.com/title/tt0472181/&quot; rel=&quot;nofollow&quot; target=&quot;_NEW&quot;&gt;\nhttp://www.imdb.com/title/tt0472181/&lt;/a&gt;\n\n\n\n\n\n\n\n\nWhen the evil wizard Gargamel chases the tiny blue Smurfs out of their village, they tumble from their magical world and into ours.\n\nCast\nCast overview, first billed only:\nHank Azaria Gargamel\nNeil Patrick Harris Patrick Winslow\nJayma Mays Grace Winslow\n\n\n\n\n\n\n\n\n\n\n\n\n\n\n\n\n\n\n\n\nSource Used\n\n\nVIDEO: ........... The.Smurfs.2011.CAM.XViD-GANE13 .......Thanks\n\nAUDIO: ........... IMAGiNE .......................Thanks\n\n\nRgb colours changed ,deinterlaced ,denoised ,smoothened ,sharpened\n\nEnjoy\n\n\n\n\n\nGreetz to IMAGiNE,Flawl3ss,DiLLoN,BDK,NOiR,TOXiC,THC,Ez,Rx,Boobyblue,TaRiQ786,BHRG\n","torrent":{"xt":"urn:btih:6333b27d0ae71d9915200b7f814782fe15bc8057","amp;dn":"The+Smurfs+2011+TS+XViD+DTRG","amp;tr":["udp%3A%2F%2Ftracker.openbittorrent.com%3A80","udp%3A%2F%2Fopen.demonii.com%3A1337","udp%3A%2F%2Ftracker.coppersurfer.tk%3A6969","udp%3A%2F%2Fexodus.desync.com%3A6969"],"infoHash":"6333b27d0ae71d9915200b7f814782fe15bc8057","infoHashBuffer":{"type":"Buffer","data":[99,51,178,125,10,231,29,153,21,32,11,127,129,71,130,254,21,188,128,87]},"announce":[],"urlList":[]}}